<?xml version="1.0" encoding="utf-8"?>
<!-- Generator: Adobe Illustrator 19.2.1, SVG Export Plug-In . SVG Version: 6.00 Build 0)  -->
<svg version="1.1" id="Capa_1" xmlns="http://www.w3.org/2000/svg" xmlns:xlink="http://www.w3.org/1999/xlink" x="0px" y="0px"
	 width="161.4px" height="42.8px" viewBox="0 0 161.4 42.8" style="enable-background:new 0 0 161.4 42.8;" xml:space="preserve">
<style type="text/css">
	.st0{fill:#FFFFFF;}
</style>
<g>
	<path class="st0" d="M17,40c-1.7,0.4-3.3,0.3-4.7-0.2c-1.5-0.5-2.8-1.2-3.9-2.3c-1.2-1.1-2.2-2.4-3-4c-0.8-1.6-1.4-3.3-1.8-5.2
		c-0.4-1.9-0.6-3.9-0.5-5.9c0.1-2,0.5-3.7,1.1-5.4c0.6-1.6,1.5-3,2.7-4.2c1.2-1.2,2.6-1.9,4.3-2.3c1.7-0.4,3.3-0.3,4.7,0.1
		c1.4,0.5,2.7,1.3,3.8,2.4c1.1,1.1,2.1,2.5,2.9,4.2c0.8,1.7,1.4,3.6,1.9,5.7c0.4,2.1,0.6,4.1,0.5,5.9c-0.1,1.9-0.5,3.6-1.1,5.1
		c-0.6,1.5-1.5,2.7-2.6,3.8C20,38.9,18.6,39.6,17,40 M12.1,15.5c-0.9,0.2-1.6,0.6-2.3,1.4c-0.6,0.7-1.1,1.6-1.4,2.7
		c-0.3,1.1-0.5,2.3-0.5,3.6c0,1.3,0.1,2.7,0.4,4.1c0.3,1.3,0.7,2.5,1.2,3.6c0.5,1.1,1.1,1.9,1.8,2.6c0.7,0.7,1.4,1.2,2.2,1.5
		c0.8,0.3,1.6,0.4,2.5,0.2c1.2-0.3,2.1-0.8,2.7-1.7c0.6-0.9,1-1.8,1.2-3c0.2-1.1,0.2-2.2,0.2-3.4c-0.1-1.2-0.2-2.2-0.4-3.1
		c-0.3-1.5-0.7-2.8-1.2-4c-0.5-1.2-1.1-2.1-1.7-2.9c-0.6-0.7-1.3-1.3-2.1-1.6C13.7,15.4,13,15.3,12.1,15.5"/>
	<path class="st0" d="M40.2,36c-1.5,0.2-2.8,0.1-4-0.2c-1.2-0.3-2.2-0.9-3.1-1.6c-0.9-0.7-1.6-1.6-2.2-2.7c-0.6-1.1-0.9-2.3-1.1-3.6
		c-0.3-2.4,0-4.6,1-6.4c1-1.8,2.6-3.1,5-4c0.7-0.9,1.8-1.4,3.1-1.5c1.2-0.2,2.3-0.1,3.3,0.2c1,0.3,2,0.7,2.8,1.3
		c0.8,0.6,1.5,1.5,2.1,2.5c0.6,1,0.9,2.2,1.1,3.5c0.1,1.1,0.2,2.3,0.1,3.4c1.3-0.2,2.3-0.5,2.9-0.9c0.6-0.5,1.2-1.1,1.5-1.8
		c0.3-0.5,0.5-0.9,0.8-1.3c0.3-0.4,0.7-0.6,1.4-0.7c0.7-0.1,1.4,0.1,1.9,0.5c0.5,0.4,0.8,0.9,0.9,1.5c0.1,0.7,0,1.4-0.4,2.2
		c-0.4,0.8-0.9,1.5-1.7,2.2c-0.8,0.7-1.8,1.3-3.1,1.8c-1.2,0.5-2.7,0.9-4.4,1.1c-0.2,0-0.5,0.1-0.7,0.1c-0.2,0-0.5,0-0.7,0
		c-0.7,1.3-1.7,2.3-2.8,3C42.8,35.4,41.5,35.8,40.2,36 M35,23.2c-0.2,0.3-0.4,0.7-0.5,1.2c-0.1,0.6-0.1,1.4,0,2.4
		c0.1,0.7,0.3,1.3,0.6,1.9c0.3,0.6,0.6,1.1,1.1,1.5c0.4,0.4,0.9,0.7,1.4,0.9c0.5,0.2,1.1,0.3,1.7,0.2c0.8-0.1,1.4-0.5,2-1.1
		c-1.5-0.5-2.9-1.4-4-2.6C36.1,26.6,35.4,25.1,35,23.2 M40.4,20.6c-0.3,0-0.6,0.2-0.8,0.5c-0.2,0.3-0.3,0.6-0.2,1
		c0.1,0.9,0.5,1.7,1.2,2.5c0.7,0.8,1.6,1.4,2.9,1.8c0.1-0.8,0.1-1.5,0-2.3c-0.2-1.3-0.6-2.2-1.2-2.8C41.7,20.8,41.1,20.6,40.4,20.6"
		/>
	<path class="st0" d="M78.2,21.3c0.7,0,1.3,0.2,1.8,0.7c0.5,0.5,0.7,1,0.8,1.7c0,0.3,0,0.6-0.1,0.9c-0.3,1.1-0.8,2.2-1.3,3.3
		c-0.5,1.1-1.2,2-1.9,2.9c-0.7,0.9-1.6,1.6-2.6,2.2c-1,0.6-2,0.9-3.1,0.9c-1.9,0.1-3.3-0.4-4.4-1.6c-1.1-1.2-1.7-2.9-1.8-5.1
		c0-0.6,0-1.3,0-2c0-0.7,0.1-1.4,0.1-2.1c0.1-0.7,0.1-1.3,0.1-1.9c0-0.6,0.1-1,0-1.3c0-0.9-0.4-1.3-1.1-1.3c-0.5,0-1.1,0.3-1.6,0.8
		c-0.6,0.5-1.1,1.3-1.7,2.5c-0.5,1.1-1.1,2.5-1.5,4.3c-0.5,1.7-0.9,3.9-1.1,6.4c-0.1,0.7-0.3,1.2-0.8,1.5c-0.4,0.4-1,0.6-1.5,0.6
		c-0.7,0-1.3-0.2-1.8-0.6c-0.5-0.4-0.8-1-0.8-1.7L52.3,5c0-0.7,0.2-1.2,0.6-1.7c0.4-0.5,1-0.8,1.7-0.8c0.7,0,1.3,0.2,1.8,0.6
		c0.5,0.4,0.8,1,0.8,1.6l0.9,15.6c0.8-1.9,1.8-3.5,3.1-4.6c1.2-1.2,2.7-1.8,4.2-1.9c0.7,0,1.3,0,2,0.2c0.6,0.2,1.2,0.5,1.7,0.9
		c0.5,0.4,0.9,1,1.2,1.7c0.3,0.7,0.5,1.6,0.6,2.7c0.1,1.2,0,2.5-0.2,3.7c-0.2,1.2-0.3,2.5-0.2,3.9c0,0.9,0.2,1.4,0.6,1.7
		c0.3,0.3,0.7,0.4,1.1,0.4c0.4,0,0.8-0.2,1.2-0.5c0.4-0.3,0.7-0.8,1.1-1.3c0.3-0.5,0.6-1.2,0.9-1.9c0.3-0.7,0.6-1.5,0.8-2.3
		c0.1-0.4,0.4-0.8,0.7-1.1C77.2,21.5,77.6,21.3,78.2,21.3"/>
	<path class="st0" d="M83.5,33.7c-2.3,0-4.1-0.9-5.3-2.8c-1.2-1.9-1.8-4.9-1.8-9c0-3.2,0-6,0-8.2c0-2.3,0.1-4.1,0.1-5.6
		c0.1-1.4,0.1-2.5,0.2-3.2c0.1-0.7,0.1-1.1,0.1-1.1c0.1-0.6,0.3-1.1,0.8-1.5c0.4-0.4,1-0.6,1.6-0.6c0.7,0,1.3,0.2,1.8,0.8
		c0.5,0.5,0.7,1.1,0.7,1.9c0,0.1,0,0.5-0.1,1.1c-0.1,0.6-0.1,1.6-0.2,2.9c-0.1,1.3-0.1,3.1-0.1,5.3c0,2.2,0,5,0,8.3
		c0,1.5,0.1,2.8,0.2,3.7c0.1,0.9,0.3,1.6,0.5,2.1c0.2,0.5,0.5,0.8,0.8,1c0.3,0.2,0.6,0.2,1,0.2c0.7,0,1.3-0.4,1.9-1.1
		c0.5-0.7,1.1-1.8,1.6-3.2c0.1-0.3,0.2-0.5,0.4-0.9s0.3-0.6,0.5-0.9c0.2-0.3,0.5-0.5,0.8-0.6c0.3-0.2,0.6-0.3,1-0.3
		c0.7,0,1.3,0.2,1.8,0.7c0.5,0.4,0.7,1,0.7,1.7c0,0.3-0.1,0.6-0.2,0.9c-0.5,1.2-1,2.3-1.6,3.4c-0.6,1-1.2,2-1.9,2.7
		c-0.7,0.8-1.5,1.4-2.4,1.9C85.5,33.5,84.5,33.7,83.5,33.7"/>
	<path class="st0" d="M113.7,23.1c0.7,0,1.3,0.3,1.7,0.9c0.4,0.6,0.6,1.2,0.6,1.9c0,0.3-0.1,0.5-0.2,0.7c-1.1,2.7-2.4,4.7-3.9,6.1
		c-1.4,1.4-3.2,2.1-5.2,2c-1.4-0.1-2.5-0.4-3.4-1.1s-1.6-1.6-2-2.6c-0.9,1.1-1.9,1.9-3,2.5c-1.1,0.5-2.4,0.8-3.9,0.7
		c-1.2-0.1-2.2-0.3-3-0.8c-0.9-0.5-1.6-1.2-2.1-2c-0.6-0.8-1-1.7-1.2-2.8c-0.2-1-0.3-2.1-0.3-3.3c0.1-1.5,0.4-2.9,1-4.3
		c0.6-1.4,1.3-2.6,2.3-3.7c0.9-1,2.1-1.9,3.4-2.5c1.3-0.6,2.8-0.9,4.3-0.8c1,0,1.9,0.2,2.7,0.6c0.8,0.3,1.6,0.8,2.2,1.4
		c0.6,0.6,1.1,1.3,1.4,2.1c0.3,0.8,0.5,1.7,0.4,2.7c0,1-0.1,1.9-0.3,2.6c-0.1,0.7-0.2,1.5-0.3,2.4c-0.1,1.2,0.1,2.2,0.4,2.9
		c0.3,0.8,0.9,1.2,1.6,1.2c0.4,0,0.8-0.1,1.1-0.2c0.3-0.2,0.7-0.5,1-0.9c0.3-0.4,0.7-1,1.1-1.7c0.4-0.7,0.8-1.6,1.2-2.6
		c0.2-0.4,0.5-0.7,0.9-1C112.8,23.2,113.2,23,113.7,23.1 M95.1,29.2c0.6,0,1.2-0.2,1.7-0.6c0.5-0.4,1-0.9,1.4-1.6
		c0.4-0.7,0.8-1.4,1.1-2.3c0.3-0.8,0.6-1.6,0.8-2.4c0.1-0.3,0.2-0.7,0.3-1.1c0.1-0.4,0.2-0.7,0.2-1c0-0.1,0-0.2-0.1-0.4
		c-0.1-0.2-0.2-0.4-0.4-0.6c-0.2-0.2-0.4-0.4-0.7-0.5c-0.3-0.2-0.6-0.2-1.1-0.3c-0.7,0-1.4,0.1-2.1,0.5c-0.7,0.4-1.3,0.8-1.8,1.5
		c-0.5,0.6-0.9,1.4-1.3,2.2c-0.3,0.8-0.5,1.7-0.6,2.6c-0.1,1.1,0.1,2,0.6,2.7C93.7,28.8,94.3,29.2,95.1,29.2"/>
	<path class="st0" d="M117.6,35.8c-2.3-0.2-3.9-1.4-4.9-3.4c-1-2-1.2-5.1-0.8-9.2c0.3-3.2,0.6-5.9,0.9-8.2c0.3-2.2,0.5-4.1,0.8-5.5
		c0.2-1.4,0.4-2.5,0.5-3.2c0.1-0.7,0.2-1.1,0.2-1.1c0.1-0.6,0.5-1.1,1-1.4c0.5-0.4,1.1-0.5,1.7-0.4c0.7,0.1,1.3,0.4,1.7,1
		c0.4,0.6,0.6,1.2,0.5,2c0,0.1-0.1,0.5-0.2,1.1c-0.1,0.6-0.3,1.5-0.5,2.9c-0.2,1.3-0.5,3.1-0.7,5.2c-0.3,2.2-0.6,4.9-0.9,8.2
		c-0.2,1.5-0.2,2.7-0.2,3.7c0,0.9,0.1,1.7,0.3,2.2c0.2,0.5,0.4,0.9,0.7,1.1c0.3,0.2,0.6,0.3,0.9,0.4c0.7,0.1,1.4-0.2,2-0.9
		c0.6-0.7,1.3-1.7,2-3c0.1-0.2,0.3-0.5,0.5-0.8c0.2-0.3,0.4-0.6,0.6-0.8c0.2-0.2,0.5-0.4,0.8-0.6c0.3-0.1,0.7-0.2,1.1-0.1
		c0.7,0.1,1.3,0.4,1.7,0.9c0.4,0.5,0.6,1.1,0.5,1.7c0,0.3-0.1,0.6-0.3,0.8c-0.6,1.1-1.2,2.2-1.9,3.2c-0.7,1-1.4,1.8-2.2,2.5
		c-0.8,0.7-1.7,1.2-2.6,1.6C119.6,35.8,118.6,36,117.6,35.8"/>
	<path class="st0" d="M140.2,39.3c-1.3-0.2-2.4-0.7-3-1.5c-0.7-0.8-1.2-1.7-1.5-2.9c-1,1-2.1,1.8-3.2,2.2c-1.1,0.4-2.5,0.5-4,0.2
		c-1.1-0.2-2.1-0.6-2.9-1.2c-0.8-0.6-1.4-1.3-1.9-2.2c-0.5-0.9-0.8-1.8-0.9-2.9c-0.1-1.1-0.1-2.2,0.1-3.3c0.2-1.5,0.7-2.9,1.5-4.2
		c0.7-1.3,1.6-2.4,2.7-3.4c1.1-0.9,2.3-1.6,3.6-2c1.4-0.4,2.8-0.5,4.4-0.3c0.8,0.1,1.6,0.4,2.4,0.8c0.8,0.4,1.5,0.9,2.1,1.5
		c0.6,0.6,1.1,1.3,1.4,2.1c0.3,0.8,0.4,1.7,0.3,2.6c-0.2,0.9-0.4,1.9-0.7,2.8c-0.3,1-0.5,2-0.7,2.9c-0.2,1.3-0.2,2.2,0,2.9
		c0.2,0.7,0.6,1,1.2,1.1c0.3,0,0.5,0,0.7,0c0.2-0.1,0.4-0.1,0.6-0.2c0.2-0.1,0.4-0.1,0.6-0.2c0.2-0.1,0.5-0.1,0.7,0
		c0.7,0.1,1.2,0.5,1.5,1c0.3,0.6,0.4,1.2,0.3,1.7c-0.1,0.5-0.3,0.9-0.6,1.2c-0.3,0.3-0.7,0.6-1.2,0.8c-0.5,0.2-1,0.3-1.6,0.4
		C141.4,39.5,140.8,39.4,140.2,39.3 M129.6,32.8c0.6,0.1,1.2,0,1.8-0.4c0.6-0.3,1.1-0.8,1.6-1.4c0.5-0.6,0.9-1.3,1.3-2.1
		c0.4-0.8,0.8-1.6,1.1-2.3c0.1-0.3,0.2-0.6,0.4-1c0.1-0.4,0.2-0.7,0.3-1c0-0.1,0-0.2,0-0.4c0-0.2-0.1-0.4-0.3-0.6
		c-0.2-0.2-0.4-0.4-0.6-0.6c-0.3-0.2-0.6-0.3-1-0.4c-0.7-0.1-1.4,0-2.2,0.2c-0.7,0.3-1.4,0.7-1.9,1.3c-0.6,0.6-1.1,1.3-1.5,2.1
		c-0.4,0.8-0.7,1.7-0.9,2.6c-0.2,1.1-0.1,2.1,0.2,2.8C128.2,32.2,128.8,32.7,129.6,32.8"/>
	<path class="st0" d="M147.8,38.2c0.2-0.7,0.5-1.2,1.1-1.6c0.6-0.3,1.2-0.4,1.9-0.3c0.7,0.2,1.2,0.5,1.5,1.1
		c0.4,0.6,0.5,1.2,0.3,1.9c-0.2,0.7-0.5,1.2-1.1,1.5c-0.6,0.3-1.2,0.4-1.9,0.3c-0.7-0.2-1.2-0.5-1.6-1.1
		C147.8,39.5,147.7,38.9,147.8,38.2 M154.2,32.6c-0.2,0.7-0.5,1.2-1.1,1.5c-0.6,0.4-1.2,0.5-1.8,0.3c-0.7-0.2-1.2-0.5-1.5-1.1
		c-0.4-0.6-0.5-1.2-0.3-1.9l4.1-17.5c0.2-0.7,0.5-1.2,1.1-1.5c0.6-0.3,1.2-0.4,1.9-0.3c0.7,0.2,1.2,0.5,1.5,1.1
		c0.4,0.6,0.4,1.2,0.3,1.8L154.2,32.6z"/>
</g>
</svg>
